<svg width="380" height="250" viewBox="0 0 380 250" fill="none" xmlns="http://www.w3.org/2000/svg">
<rect width="380" height="250" fill="#1E1E1E"/>
<rect width="380" height="250" fill="#77A6F7"/>
<path d="M99.184 131.08C99.312 130.92 99.456 130.888 99.616 130.984C99.776 131.08 99.856 131.224 99.856 131.416V137.512C98.192 138.952 96.352 139.992 94.336 140.632C92.352 141.272 90.208 141.592 87.904 141.592C85.28 141.592 82.928 141.144 80.848 140.248C78.8 139.384 77.056 138.136 75.616 136.504C74.176 134.84 73.072 132.84 72.304 130.504C71.568 128.168 71.2 125.544 71.2 122.632C71.2 119.656 71.632 117 72.496 114.664C73.392 112.296 74.608 110.296 76.144 108.664C77.68 107.032 79.504 105.784 81.616 104.92C83.728 104.056 86.016 103.624 88.48 103.624C90.848 103.624 92.912 103.88 94.672 104.392C96.432 104.872 98.064 105.784 99.568 107.128V113.176C99.568 113.368 99.488 113.512 99.328 113.608C99.168 113.704 99.024 113.672 98.896 113.512C97.36 111.784 95.776 110.552 94.144 109.816C92.512 109.048 90.736 108.664 88.816 108.664C87.184 108.664 85.68 108.968 84.304 109.576C82.928 110.152 81.728 111.016 80.704 112.168C79.712 113.32 78.928 114.76 78.352 116.488C77.776 118.184 77.488 120.168 77.488 122.44C77.488 127.176 78.432 130.696 80.32 133C82.208 135.304 84.976 136.456 88.624 136.456C90.64 136.456 92.528 135.992 94.288 135.064C96.048 134.104 97.68 132.776 99.184 131.08ZM103.92 141.16V101.416H109.872V117.4H109.92C110.752 116.28 111.824 115.336 113.136 114.568C114.48 113.8 115.984 113.416 117.648 113.416C120.656 113.416 122.928 114.312 124.464 116.104C126.032 117.896 126.816 120.632 126.816 124.312V141.16H120.912V124.024C120.912 121.784 120.496 120.232 119.664 119.368C118.832 118.472 117.664 118.024 116.16 118.024C115.296 118.024 114.48 118.216 113.712 118.6C112.944 118.984 112.272 119.544 111.696 120.28C111.12 120.984 110.656 121.864 110.304 122.92C109.984 123.944 109.824 125.112 109.824 126.424V141.16H103.92ZM142.935 141.592C140.759 141.592 138.871 141.208 137.271 140.44C135.671 139.672 134.343 138.648 133.287 137.368C132.263 136.056 131.495 134.552 130.983 132.856C130.503 131.16 130.263 129.368 130.263 127.48C130.263 125.496 130.535 123.656 131.079 121.96C131.623 120.232 132.423 118.728 133.479 117.448C134.535 116.168 135.847 115.176 137.415 114.472C139.015 113.736 140.855 113.368 142.935 113.368C145.015 113.368 146.839 113.736 148.407 114.472C150.007 115.176 151.335 116.168 152.391 117.448C153.447 118.728 154.247 120.232 154.791 121.96C155.335 123.656 155.607 125.496 155.607 127.48C155.607 129.368 155.351 131.16 154.839 132.856C154.327 134.552 153.543 136.056 152.487 137.368C151.463 138.648 150.151 139.672 148.551 140.44C146.983 141.208 145.111 141.592 142.935 141.592ZM142.935 136.84C145.111 136.84 146.743 136.104 147.831 134.632C148.919 133.128 149.463 130.744 149.463 127.48C149.463 124.152 148.919 121.752 147.831 120.28C146.775 118.808 145.143 118.072 142.935 118.072C140.759 118.072 139.127 118.808 138.039 120.28C136.951 121.752 136.407 124.152 136.407 127.48C136.407 130.744 136.951 133.128 138.039 134.632C139.159 136.104 140.791 136.84 142.935 136.84ZM179.182 121.624C178.158 120.504 177.038 119.672 175.822 119.128C174.638 118.552 173.246 118.264 171.646 118.264C170.366 118.264 169.246 118.504 168.286 118.984C167.326 119.464 166.526 120.136 165.886 121C165.278 121.832 164.814 122.824 164.494 123.976C164.174 125.128 164.014 126.376 164.014 127.72C164.014 130.568 164.654 132.824 165.934 134.488C167.214 136.152 169.198 136.984 171.886 136.984C173.454 136.984 174.83 136.68 176.014 136.072C177.23 135.464 178.35 134.552 179.374 133.336C179.502 133.176 179.646 133.128 179.806 133.192C179.966 133.256 180.046 133.384 180.046 133.576V138.808C178.862 139.928 177.582 140.712 176.206 141.16C174.862 141.608 173.326 141.832 171.598 141.832C169.582 141.832 167.726 141.528 166.03 140.92C164.334 140.344 162.878 139.48 161.662 138.328C160.446 137.144 159.502 135.672 158.83 133.912C158.158 132.152 157.822 130.104 157.822 127.768C157.822 125.56 158.142 123.576 158.782 121.816C159.422 120.024 160.334 118.504 161.518 117.256C162.702 116.008 164.142 115.048 165.838 114.376C167.534 113.704 169.422 113.368 171.502 113.368C173.134 113.368 174.622 113.592 175.966 114.04C177.342 114.488 178.638 115.208 179.854 116.2V121.384C179.854 121.576 179.774 121.704 179.614 121.768C179.454 121.832 179.31 121.784 179.182 121.624ZM193.372 141.592C191.196 141.592 189.308 141.208 187.708 140.44C186.108 139.672 184.78 138.648 183.724 137.368C182.7 136.056 181.932 134.552 181.42 132.856C180.94 131.16 180.7 129.368 180.7 127.48C180.7 125.496 180.972 123.656 181.516 121.96C182.06 120.232 182.86 118.728 183.916 117.448C184.972 116.168 186.284 115.176 187.852 114.472C189.452 113.736 191.292 113.368 193.372 113.368C195.452 113.368 197.276 113.736 198.844 114.472C200.444 115.176 201.772 116.168 202.828 117.448C203.884 118.728 204.684 120.232 205.228 121.96C205.772 123.656 206.044 125.496 206.044 127.48C206.044 129.368 205.788 131.16 205.276 132.856C204.764 134.552 203.98 136.056 202.924 137.368C201.9 138.648 200.588 139.672 198.988 140.44C197.42 141.208 195.548 141.592 193.372 141.592ZM193.372 136.84C195.548 136.84 197.18 136.104 198.268 134.632C199.356 133.128 199.9 130.744 199.9 127.48C199.9 124.152 199.356 121.752 198.268 120.28C197.212 118.808 195.58 118.072 193.372 118.072C191.196 118.072 189.564 118.808 188.476 120.28C187.388 121.752 186.844 124.152 186.844 127.48C186.844 130.744 187.388 133.128 188.476 134.632C189.596 136.104 191.228 136.84 193.372 136.84ZM237.923 104.056V141.16H231.875V123.352H216.851V141.16H210.803V104.056H216.851V118.312H231.875V104.056H237.923ZM259.224 130.312V127.288L253.464 128.104C251.864 128.328 250.616 128.872 249.72 129.736C248.856 130.6 248.424 131.736 248.424 133.144C248.424 134.392 248.776 135.32 249.48 135.928C250.216 136.536 251.224 136.84 252.504 136.84C253.368 136.84 254.2 136.664 255 136.312C255.8 135.928 256.504 135.432 257.112 134.824C257.752 134.184 258.264 133.48 258.648 132.712C259.032 131.944 259.224 131.144 259.224 130.312ZM245.688 121.72C245.528 121.848 245.368 121.88 245.208 121.816C245.08 121.72 245.016 121.576 245.016 121.384V116.2C246.552 115.176 248.168 114.376 249.864 113.8C251.592 113.224 253.528 112.936 255.672 112.936C258.904 112.936 261.256 113.736 262.728 115.336C264.232 116.904 264.984 119.384 264.984 122.776V141.16H259.704L259.416 137.848H259.368C258.536 139 257.416 139.928 256.008 140.632C254.6 141.368 253.08 141.736 251.448 141.736C248.536 141.736 246.312 141.032 244.776 139.624C243.272 138.216 242.52 136.216 242.52 133.624C242.52 131.064 243.32 128.968 244.92 127.336C246.52 125.672 248.824 124.616 251.832 124.168L259.08 122.968V122.728C259.08 121.032 258.76 119.816 258.12 119.08C257.512 118.312 256.376 117.928 254.712 117.928C253.24 117.928 251.784 118.216 250.344 118.792C248.904 119.336 247.352 120.312 245.688 121.72ZM289.494 118.264C291.51 115.032 294.31 113.416 297.894 113.416C299.494 113.416 300.838 113.688 301.926 114.232C303.046 114.744 303.942 115.512 304.614 116.536C305.318 117.528 305.814 118.76 306.102 120.232C306.422 121.704 306.582 123.384 306.582 125.272V141.16H300.678V124.648C300.678 122.248 300.358 120.552 299.718 119.56C299.078 118.568 298.038 118.072 296.598 118.072C295.862 118.072 295.158 118.248 294.486 118.6C293.814 118.952 293.206 119.464 292.662 120.136C292.15 120.776 291.734 121.576 291.414 122.536C291.094 123.496 290.934 124.584 290.934 125.8V141.16H285.27V125.464C285.27 122.744 284.982 120.84 284.406 119.752C283.83 118.632 282.806 118.072 281.334 118.072C279.574 118.072 278.166 118.808 277.11 120.28C276.086 121.72 275.574 123.768 275.574 126.424V141.16H269.67V113.992H275.19L275.478 117.4H275.526C276.358 116.12 277.398 115.144 278.646 114.472C279.926 113.768 281.19 113.416 282.438 113.416C284.294 113.416 285.782 113.848 286.902 114.712C288.054 115.576 288.902 116.76 289.446 118.264H289.494Z" fill="white"/>
<path d="M-10 88V44.9756L46.519 -10H85L-10 88Z" fill="white"/>
</svg>
